<svg xmlns="http://www.w3.org/2000/svg" viewBox="0 0 200 150"><rect width="200" height="150" rx="24" fill="#061426"/><circle cx="100" cy="75" r="50" fill="#78ff9d" opacity="0.12"/><circle cx="133" cy="44" r="1.2" fill="#ffffff" opacity="0.81"/><circle cx="83" cy="58" r="1.6" fill="#ffffff" opacity="0.81"/><circle cx="138" cy="99" r="1.2" fill="#ffffff" opacity="0.72"/><circle cx="56" cy="33" r="1.2" fill="#ffffff" opacity="0.52"/><circle cx="116" cy="107" r="1.2" fill="#ffffff" opacity="0.71"/><circle cx="143" cy="113" r="2.6" fill="#ffffff" opacity="0.52"/><circle cx="127" cy="65" r="1.2" fill="#ffffff" opacity="0.82"/><circle cx="72" cy="119" r="2.6" fill="#ffffff" opacity="0.59"/><circle cx="71" cy="57" r="2.0" fill="#ffffff" opacity="0.46"/><circle cx="100" cy="42" r="2.0" fill="#ffffff" opacity="0.87"/><circle cx="129" cy="63" r="1.2" fill="#ffffff" opacity="0.80"/><circle cx="120" cy="45" r="2.6" fill="#ffffff" opacity="0.44"/><circle cx="89" cy="110" r="2.0" fill="#ffffff" opacity="0.72"/><circle cx="142" cy="38" r="1.2" fill="#ffffff" opacity="0.76"/><circle cx="89" cy="40" r="1.6" fill="#ffffff" opacity="0.88"/><circle cx="100" cy="65" r="2.6" fill="#ffffff" opacity="0.75"/><circle cx="98" cy="50" r="2.0" fill="#ffffff" opacity="0.60"/><circle cx="137" cy="64" r="1.2" fill="#ffffff" opacity="0.74"/><circle cx="73" cy="98" r="1.6" fill="#ffffff" opacity="0.49"/><circle cx="100" cy="64" r="1.6" fill="#ffffff" opacity="0.78"/><circle cx="59" cy="59" r="1.2" fill="#ffffff" opacity="0.84"/><circle cx="103" cy="64" r="1.2" fill="#ffffff" opacity="0.52"/><circle cx="124" cy="70" r="1.6" fill="#ffffff" opacity="0.76"/><circle cx="102" cy="112" r="2.6" fill="#ffffff" opacity="0.48"/><circle cx="69" cy="61" r="2.0" fill="#ffffff" opacity="0.81"/><circle cx="106" cy="104" r="2.6" fill="#ffffff" opacity="0.60"/><circle cx="69" cy="95" r="2.6" fill="#ffffff" opacity="0.45"/><circle cx="58" cy="44" r="1.6" fill="#ffffff" opacity="0.75"/><circle cx="139" cy="84" r="1.2" fill="#ffffff" opacity="0.61"/><circle cx="128" cy="89" r="2.0" fill="#ffffff" opacity="0.93"/><circle cx="53" cy="117" r="1.2" fill="#ffffff" opacity="0.77"/><circle cx="120" cy="64" r="2.0" fill="#ffffff" opacity="0.46"/><circle cx="107" cy="50" r="2.6" fill="#ffffff" opacity="0.40"/><circle cx="144" cy="63" r="1.6" fill="#ffffff" opacity="0.68"/><circle cx="65" cy="110" r="2.0" fill="#ffffff" opacity="0.86"/><circle cx="116" cy="107" r="1.6" fill="#ffffff" opacity="0.48"/><circle cx="72" cy="99" r="1.2" fill="#ffffff" opacity="0.73"/><circle cx="114" cy="32" r="1.2" fill="#ffffff" opacity="0.91"/><circle cx="91" cy="60" r="1.2" fill="#ffffff" opacity="0.53"/><circle cx="124" cy="40" r="1.2" fill="#ffffff" opacity="0.80"/><circle cx="60" cy="98" r="1.6" fill="#ffffff" opacity="0.47"/><circle cx="112" cy="100" r="1.6" fill="#ffffff" opacity="0.55"/><circle cx="129" cy="84" r="1.6" fill="#ffffff" opacity="0.91"/><circle cx="148" cy="118" r="1.6" fill="#ffffff" opacity="0.79"/><circle cx="103" cy="115" r="2.0" fill="#ffffff" opacity="0.64"/><circle cx="118" cy="87" r="1.2" fill="#ffffff" opacity="0.54"/><circle cx="60" cy="73" r="1.2" fill="#ffffff" opacity="0.72"/><circle cx="81" cy="105" r="1.6" fill="#ffffff" opacity="0.40"/><circle cx="142" cy="110" r="1.2" fill="#ffffff" opacity="0.53"/><circle cx="56" cy="72" r="1.2" fill="#ffffff" opacity="0.68"/><circle cx="87" cy="115" r="2.6" fill="#ffffff" opacity="0.52"/><circle cx="68" cy="103" r="2.6" fill="#ffffff" opacity="0.53"/><circle cx="112" cy="82" r="1.6" fill="#ffffff" opacity="0.45"/><circle cx="136" cy="85" r="2.0" fill="#ffffff" opacity="0.63"/><circle cx="111" cy="36" r="1.2" fill="#ffffff" opacity="0.43"/><circle cx="145" cy="73" r="1.2" fill="#ffffff" opacity="0.54"/><circle cx="76" cy="98" r="2.6" fill="#ffffff" opacity="0.48"/><circle cx="75" cy="65" r="2.6" fill="#ffffff" opacity="0.54"/><circle cx="61" cy="86" r="1.2" fill="#ffffff" opacity="0.43"/><circle cx="121" cy="31" r="1.2" fill="#ffffff" opacity="0.91"/><circle cx="82" cy="51" r="2.6" fill="#ffffff" opacity="0.67"/><circle cx="79" cy="81" r="1.2" fill="#ffffff" opacity="0.49"/><circle cx="52" cy="79" r="2.0" fill="#ffffff" opacity="0.91"/><circle cx="110" cy="66" r="2.6" fill="#ffffff" opacity="0.78"/><circle cx="145" cy="101" r="2.6" fill="#ffffff" opacity="0.49"/><circle cx="89" cy="57" r="1.2" fill="#ffffff" opacity="0.72"/><circle cx="121" cy="37" r="2.0" fill="#ffffff" opacity="0.43"/><circle cx="126" cy="91" r="1.6" fill="#ffffff" opacity="0.43"/><circle cx="117" cy="40" r="1.6" fill="#ffffff" opacity="0.44"/><circle cx="60" cy="116" r="1.6" fill="#ffffff" opacity="0.62"/></svg>