<svg xmlns="http://www.w3.org/2000/svg" viewBox="0 0 200 150"><rect width="200" height="150" rx="24" fill="#061426"/><circle cx="163" cy="51" r="3.2" fill="#ffffff" opacity="0.9"/><path d="M159 51h8M163 47v8" stroke="#ffffff" stroke-width="1.2" opacity="0.7"/><circle cx="176" cy="30" r="2.2" fill="#58e6ff" opacity="0.9"/><path d="M172 30h8M176 26v8" stroke="#58e6ff" stroke-width="1.2" opacity="0.7"/><circle cx="84" cy="46" r="3.2" fill="#58e6ff" opacity="0.9"/><path d="M80 46h8M84 42v8" stroke="#58e6ff" stroke-width="1.2" opacity="0.7"/><circle cx="79" cy="53" r="2.2" fill="#ffd84d" opacity="0.9"/><path d="M75 53h8M79 49v8" stroke="#ffd84d" stroke-width="1.2" opacity="0.7"/><circle cx="94" cy="78" r="2.2" fill="#ffffff" opacity="0.9"/><path d="M90 78h8M94 74v8" stroke="#ffffff" stroke-width="1.2" opacity="0.7"/><circle cx="20" cy="78" r="3.2" fill="#ffffff" opacity="0.9"/><path d="M16 78h8M20 74v8" stroke="#ffffff" stroke-width="1.2" opacity="0.7"/><circle cx="36" cy="88" r="1.5" fill="#58e6ff" opacity="0.9"/><circle cx="51" cy="64" r="1.5" fill="#ffd84d" opacity="0.9"/><circle cx="112" cy="56" r="1.5" fill="#d18cff" opacity="0.9"/><circle cx="157" cy="110" r="2.2" fill="#ffffff" opacity="0.9"/><path d="M153 110h8M157 106v8" stroke="#ffffff" stroke-width="1.2" opacity="0.7"/><circle cx="159" cy="58" r="3.2" fill="#ffffff" opacity="0.9"/><path d="M155 58h8M159 54v8" stroke="#ffffff" stroke-width="1.2" opacity="0.7"/><circle cx="52" cy="53" r="1.5" fill="#ffffff" opacity="0.9"/><circle cx="159" cy="39" r="2.2" fill="#58e6ff" opacity="0.9"/><path d="M155 39h8M159 35v8" stroke="#58e6ff" stroke-width="1.2" opacity="0.7"/><circle cx="172" cy="46" r="3.2" fill="#58e6ff" opacity="0.9"/><path d="M168 46h8M172 42v8" stroke="#58e6ff" stroke-width="1.2" opacity="0.7"/><circle cx="70" cy="107" r="3.2" fill="#58e6ff" opacity="0.9"/><path d="M66 107h8M70 103v8" stroke="#58e6ff" stroke-width="1.2" opacity="0.7"/><circle cx="147" cy="82" r="2.2" fill="#ffffff" opacity="0.9"/><path d="M143 82h8M147 78v8" stroke="#ffffff" stroke-width="1.2" opacity="0.7"/><circle cx="41" cy="101" r="2.2" fill="#58e6ff" opacity="0.9"/><path d="M37 101h8M41 97v8" stroke="#58e6ff" stroke-width="1.2" opacity="0.7"/><circle cx="29" cy="20" r="2.2" fill="#ffd84d" opacity="0.9"/><path d="M25 20h8M29 16v8" stroke="#ffd84d" stroke-width="1.2" opacity="0.7"/><circle cx="181" cy="53" r="1.5" fill="#d18cff" opacity="0.9"/><circle cx="159" cy="110" r="2.2" fill="#ffffff" opacity="0.9"/><path d="M155 110h8M159 106v8" stroke="#ffffff" stroke-width="1.2" opacity="0.7"/><circle cx="46" cy="29" r="3.2" fill="#ffd84d" opacity="0.9"/><path d="M42 29h8M46 25v8" stroke="#ffd84d" stroke-width="1.2" opacity="0.7"/><circle cx="157" cy="24" r="2.2" fill="#ffd84d" opacity="0.9"/><path d="M153 24h8M157 20v8" stroke="#ffd84d" stroke-width="1.2" opacity="0.7"/><circle cx="128" cy="36" r="1.5" fill="#58e6ff" opacity="0.9"/><circle cx="111" cy="121" r="1.5" fill="#58e6ff" opacity="0.9"/><circle cx="71" cy="107" r="1.5" fill="#ffffff" opacity="0.9"/><circle cx="108" cy="119" r="3.2" fill="#d18cff" opacity="0.9"/><path d="M104 119h8M108 115v8" stroke="#d18cff" stroke-width="1.2" opacity="0.7"/></svg>